<?xml version="1.0" encoding="utf-8"?>
<!-- Generator: Adobe Illustrator 23.0.3, SVG Export Plug-In . SVG Version: 6.00 Build 0)  -->
<svg version="1.1" id="Layer_1" xmlns="http://www.w3.org/2000/svg" xmlns:xlink="http://www.w3.org/1999/xlink" x="0px" y="0px"
	 viewBox="0 0 50 42" style="enable-background:new 0 0 50 42;" xml:space="preserve">
<style type="text/css">
	.st0{fill:#ECF946;}
	.st1{fill:none;stroke:#0CBFA6;stroke-linecap:round;stroke-miterlimit:10;}
	.st2{fill:#01B7A6;}
	.st3{fill:#19E048;}
	.st4{fill:#FF7A1D;}
	.st5{fill:#FFFFFF;}
	.st6{fill:none;stroke:#19E048;stroke-width:0.5;stroke-linecap:round;stroke-miterlimit:10;}
</style>
<circle class="st0" cx="25" cy="18" r="17"/>
<path class="st1" d="M15,30.5c-0.2-0.2-0.4-0.3-0.6-0.5C11.1,27.1,9,22.8,9,18C9,9.2,16.2,2,25,2s16,7.2,16,16
	c0,7.4-5,13.6-11.8,15.4c-0.2,0.1-0.4,0.1-0.6,0.2"/>
<line class="st2" x1="21.8" y1="10" x2="21.8" y2="10"/>
<polyline class="st3" points="18.2,17.5 16.6,29.8 17.6,30 19.2,17.5 "/>
<path class="st3" d="M36.5,16H28h-6.7c-1.3,0-2.3-1-2.4-2.3L18.7,10l0,0c-1-1.8,1.3-3.4,3.3-4c2.3-0.7,3.3-1.4,5.6-0.9
	C32.5,6.2,36.7,9.9,36.5,16z"/>
<path class="st4" d="M13,16h8.5l1-6c0.7,0.4,2.4,1.1,4.5,1c1.7-0.1,3-0.6,3.8-1c0.6-1,1.1-2,1.7-2.9C25.4,2,12.7,5.3,13,16z"/>
<path class="st5" d="M30.1,12h-2.9H25h-2.2l-0.3,2h5.6c0.5,0,0.9,0.4,0.9,0.9v0.3c0,0.5-0.4,0.9-0.9,0.9h-6L21,23.1
	c-0.1,0.5-0.6,0.9-1.1,0.8c-0.5-0.1-0.9-0.6-0.8-1.1L21,10.9c0,0,0,0,0,0v0c0-0.5,0.4-0.8,0.8-0.8H25h2.2H31l-1,2"/>
<path class="st3" d="M18.2,17.5C18.2,17.5,18.2,17.5,18.2,17.5l-6.4,0c-0.2,0-0.3,0.1-0.3,0.3v0.4c0,0.2,0.1,0.3,0.3,0.3H19v-1
	C18.8,17.5,18.5,17.5,18.2,17.5z"/>
<polygon class="st4" points="23.8,17.5 23.7,18 23.7,18.2 23.4,19.4 23.3,20 23.2,20.5 23.1,21 22.1,21 22.8,17.5 22.9,17.5 "/>
<polygon class="st4" points="39.5,17.5 39.5,18.5 23.9,18.5 24,18 23.5,18 23.5,17.5 23.8,17.5 23.8,17.5 "/>
<polygon class="st3" points="24,18 23.9,18.5 23.5,18.5 23.5,18 "/>
<rect x="27" y="18" transform="matrix(0.9845 0.1755 -0.1755 0.9845 4.6522 -4.4429)" class="st4" width="0.9" height="12.2"/>
<ellipse transform="matrix(0.133 -0.9911 0.9911 0.133 -9.1005 53.465)" class="st4" cx="26" cy="31.9" rx="2.8" ry="2"/>
<polygon class="st4" points="24,18 23.9,18.5 23.6,18.5 23.5,18.5 23.5,18 "/>
<line class="st6" x1="16" y1="30.7" x2="15.8" y2="33.8"/>
<line class="st6" x1="17.2" y1="30.7" x2="17" y2="33.8"/>
<line class="st6" x1="18.4" y1="30.7" x2="18.2" y2="33.8"/>
<path class="st3" d="M15.7,31l3,0.1c0,0,0.1-2-1.4-2.1S15.7,31,15.7,31z"/>
<g>
	<path class="st4" d="M9.7,37v1.2h1.9v0.7H9.7v1.7H9v-4.2h2.8l0,0.7H9.7z"/>
	<path class="st4" d="M15.1,40.1c-0.3,0.3-0.7,0.5-1.2,0.5c-0.5,0-0.9-0.2-1.2-0.5c-0.3-0.3-0.5-0.7-0.5-1.2s0.2-0.8,0.5-1.2
		c0.3-0.3,0.7-0.5,1.2-0.5c0.5,0,0.9,0.2,1.2,0.5c0.3,0.3,0.5,0.7,0.5,1.2S15.5,39.8,15.1,40.1z M13.2,39.7c0.2,0.2,0.4,0.3,0.7,0.3
		s0.5-0.1,0.7-0.3c0.2-0.2,0.3-0.4,0.3-0.8c0-0.3-0.1-0.6-0.3-0.8c-0.2-0.2-0.4-0.3-0.7-0.3s-0.5,0.1-0.7,0.3
		c-0.2,0.2-0.3,0.4-0.3,0.8C12.9,39.2,13,39.5,13.2,39.7z"/>
	<path class="st4" d="M19.1,40.1c-0.3,0.3-0.7,0.5-1.2,0.5c-0.5,0-0.9-0.2-1.2-0.5c-0.3-0.3-0.5-0.7-0.5-1.2s0.2-0.8,0.5-1.2
		c0.3-0.3,0.7-0.5,1.2-0.5c0.5,0,0.9,0.2,1.2,0.5c0.3,0.3,0.5,0.7,0.5,1.2S19.4,39.8,19.1,40.1z M17.1,39.7c0.2,0.2,0.4,0.3,0.7,0.3
		s0.5-0.1,0.7-0.3c0.2-0.2,0.3-0.4,0.3-0.8c0-0.3-0.1-0.6-0.3-0.8c-0.2-0.2-0.4-0.3-0.7-0.3s-0.5,0.1-0.7,0.3
		c-0.2,0.2-0.3,0.4-0.3,0.8C16.8,39.2,16.9,39.5,17.1,39.7z"/>
	<path class="st4" d="M20.5,40.1c-0.3-0.3-0.5-0.7-0.5-1.2c0-0.5,0.2-0.9,0.5-1.2c0.3-0.3,0.7-0.4,1.1-0.4c0.4,0,0.8,0.2,1,0.5v-1.8
		h0.7v4.5h-0.7V40c-0.2,0.4-0.6,0.5-1.1,0.5C21.2,40.6,20.8,40.4,20.5,40.1z M20.8,38.9c0,0.3,0.1,0.6,0.3,0.7s0.4,0.3,0.7,0.3
		c0.3,0,0.5-0.1,0.7-0.3c0.2-0.2,0.3-0.4,0.3-0.7s-0.1-0.6-0.3-0.8c-0.2-0.2-0.4-0.3-0.7-0.3c-0.3,0-0.5,0.1-0.7,0.3
		C20.9,38.4,20.8,38.6,20.8,38.9z"/>
	<path class="st3" d="M28.9,36.7c0.3,0.2,0.4,0.6,0.4,1.1s-0.1,0.9-0.4,1.1s-0.8,0.4-1.4,0.4h-0.7v1.2h-0.7v-4.2h1.4
		C28.1,36.3,28.6,36.5,28.9,36.7z M28.4,38.4c0.1-0.2,0.2-0.4,0.2-0.7s-0.1-0.5-0.3-0.6C28.2,37,27.9,37,27.5,37h-0.7v1.7h0.8
		C28,38.7,28.3,38.6,28.4,38.4z"/>
	<path class="st3" d="M33,39.2h-2.5c0,0.2,0.1,0.4,0.3,0.6c0.2,0.1,0.4,0.2,0.7,0.2c0.4,0,0.7-0.1,0.9-0.4l0.4,0.4
		c-0.3,0.4-0.8,0.5-1.3,0.5c-0.4,0-0.8-0.1-1.1-0.4c-0.3-0.3-0.5-0.7-0.5-1.2s0.2-0.9,0.5-1.2c0.3-0.3,0.7-0.4,1.1-0.4
		c0.4,0,0.8,0.1,1.1,0.4c0.3,0.3,0.5,0.6,0.5,1.1V39.2z M30.5,38.7h1.8c0-0.3-0.1-0.5-0.3-0.6c-0.2-0.1-0.4-0.2-0.6-0.2
		s-0.5,0.1-0.7,0.2C30.6,38.2,30.5,38.4,30.5,38.7z"/>
	<path class="st3" d="M34,40.1c-0.3-0.3-0.5-0.7-0.5-1.2c0-0.5,0.2-0.9,0.5-1.2c0.3-0.3,0.7-0.4,1.1-0.4c0.4,0,0.8,0.2,1,0.5v-1.8
		h0.7v4.5h-0.7V40c-0.2,0.4-0.6,0.5-1.1,0.5C34.7,40.6,34.3,40.4,34,40.1z M34.3,38.9c0,0.3,0.1,0.6,0.3,0.7S35,40,35.2,40
		c0.3,0,0.5-0.1,0.7-0.3c0.2-0.2,0.3-0.4,0.3-0.7s-0.1-0.6-0.3-0.8c-0.2-0.2-0.4-0.3-0.7-0.3c-0.3,0-0.5,0.1-0.7,0.3
		C34.3,38.4,34.3,38.6,34.3,38.9z"/>
	<path class="st3" d="M37.9,36.7c-0.1-0.1-0.1-0.2-0.1-0.3s0-0.2,0.1-0.3S38,36,38.2,36s0.2,0,0.3,0.1s0.1,0.2,0.1,0.3
		s0,0.2-0.1,0.3s-0.2,0.1-0.3,0.1S37.9,36.8,37.9,36.7z M38.5,40.5h-0.7v-3.2h0.7V40.5z"/>
	<path class="st3" d="M42,40.5h-0.6v-0.4c-0.3,0.3-0.6,0.5-1.1,0.5c-0.3,0-0.6-0.1-0.8-0.3c-0.2-0.2-0.3-0.4-0.3-0.8
		c0-0.3,0.1-0.5,0.3-0.7c0.2-0.2,0.5-0.2,0.9-0.2h0.9v-0.1c0-0.4-0.2-0.6-0.7-0.6c-0.3,0-0.6,0.1-0.9,0.3l-0.3-0.4
		c0.4-0.3,0.8-0.5,1.3-0.5c0.4,0,0.7,0.1,0.9,0.3c0.2,0.2,0.4,0.5,0.4,0.9V40.5z M41.4,39.3v-0.3h-0.8c-0.5,0-0.7,0.2-0.7,0.5
		c0,0.2,0.1,0.3,0.2,0.4s0.3,0.1,0.5,0.1s0.4-0.1,0.6-0.2S41.4,39.5,41.4,39.3z"/>
</g>
</svg>
